<mxfile host="app.diagrams.net" agent="Mozilla/5.0 (Macintosh; Intel Mac OS X 10_15_7) AppleWebKit/537.36 (KHTML, like Gecko) Chrome/127.0.0.0 Safari/537.36" version="24.7.6">
  <diagram name="페이지-1" id="lI48-LUjIKv5oVbXYokH">
    <mxGraphModel dx="1589" dy="994" grid="0" gridSize="10" guides="1" tooltips="1" connect="1" arrows="1" fold="1" page="1" pageScale="1" pageWidth="1600" pageHeight="1400" background="#ffffff" math="0" shadow="0">
      <root>
        <mxCell id="0" />
        <mxCell id="1" parent="0" />
        <mxCell id="y2j8pdcFpELkHroc6ahy-34" value="&amp;lt;&amp;lt; Web Service&lt;span style=&quot;background-color: initial;&quot;&gt;&amp;nbsp;&amp;gt;&amp;gt;&lt;/span&gt;&lt;div&gt;S1ESP&lt;/div&gt;&lt;div&gt;&lt;br&gt;&lt;/div&gt;&lt;div&gt;&lt;br&gt;&lt;/div&gt;&lt;div&gt;&lt;br&gt;&lt;/div&gt;&lt;div&gt;&lt;br&gt;&lt;/div&gt;&lt;div&gt;&lt;br&gt;&lt;/div&gt;&lt;div&gt;&lt;br&gt;&lt;/div&gt;&lt;div&gt;&lt;br&gt;&lt;/div&gt;&lt;div&gt;&lt;br&gt;&lt;/div&gt;&lt;div&gt;&lt;br&gt;&lt;/div&gt;&lt;div&gt;&lt;br&gt;&lt;/div&gt;&lt;div&gt;&lt;br&gt;&lt;/div&gt;&lt;div&gt;&lt;br&gt;&lt;/div&gt;&lt;div&gt;&lt;br&gt;&lt;/div&gt;&lt;div&gt;&lt;br&gt;&lt;/div&gt;&lt;div&gt;&lt;br&gt;&lt;/div&gt;&lt;div&gt;&lt;br&gt;&lt;/div&gt;&lt;div&gt;&lt;br&gt;&lt;/div&gt;&lt;div&gt;&lt;br&gt;&lt;/div&gt;&lt;div&gt;&lt;br&gt;&lt;/div&gt;&lt;div&gt;&lt;br&gt;&lt;/div&gt;&lt;div&gt;&lt;br&gt;&lt;/div&gt;&lt;div&gt;&lt;br&gt;&lt;/div&gt;&lt;div&gt;&lt;br&gt;&lt;/div&gt;&lt;div&gt;&lt;br&gt;&lt;/div&gt;&lt;div&gt;&lt;br&gt;&lt;/div&gt;&lt;div&gt;&lt;br&gt;&lt;/div&gt;&lt;div&gt;&lt;br&gt;&lt;/div&gt;&lt;div&gt;&lt;br&gt;&lt;/div&gt;&lt;div&gt;&lt;br&gt;&lt;/div&gt;&lt;div&gt;&lt;br&gt;&lt;/div&gt;&lt;div&gt;&lt;br&gt;&lt;/div&gt;&lt;div&gt;&lt;br&gt;&lt;/div&gt;&lt;div&gt;&lt;br&gt;&lt;/div&gt;" style="rounded=1;whiteSpace=wrap;html=1;arcSize=0;" vertex="1" parent="1">
          <mxGeometry x="1100" y="79.5" width="380" height="530" as="geometry" />
        </mxCell>
        <mxCell id="y2j8pdcFpELkHroc6ahy-2" value="S1ESP UTM APIs" style="shape=umlFrame;whiteSpace=wrap;html=1;pointerEvents=0;width=150;height=30;" vertex="1" parent="1">
          <mxGeometry x="1090" y="41.5" width="400" height="580" as="geometry" />
        </mxCell>
        <mxCell id="y2j8pdcFpELkHroc6ahy-9" value="Consumer PC" style="shape=umlFrame;whiteSpace=wrap;html=1;pointerEvents=0;recursiveResize=0;container=1;collapsible=0;width=170;" vertex="1" parent="1">
          <mxGeometry x="441" y="370.5" width="332" height="247.94" as="geometry" />
        </mxCell>
        <mxCell id="y2j8pdcFpELkHroc6ahy-10" value="[User mode]" style="text;html=1;" vertex="1" parent="y2j8pdcFpELkHroc6ahy-9">
          <mxGeometry width="100" height="20" relative="1" as="geometry">
            <mxPoint x="10" y="30" as="offset" />
          </mxGeometry>
        </mxCell>
        <mxCell id="y2j8pdcFpELkHroc6ahy-11" value="" style="line;strokeWidth=1;dashed=1;labelPosition=center;verticalLabelPosition=bottom;align=left;verticalAlign=top;spacingLeft=20;spacingTop=15;html=1;whiteSpace=wrap;" vertex="1" parent="y2j8pdcFpELkHroc6ahy-9">
          <mxGeometry y="170" width="330" height="10" as="geometry" />
        </mxCell>
        <mxCell id="y2j8pdcFpELkHroc6ahy-142" style="edgeStyle=orthogonalEdgeStyle;rounded=0;orthogonalLoop=1;jettySize=auto;html=1;" edge="1" parent="y2j8pdcFpELkHroc6ahy-9" source="y2j8pdcFpELkHroc6ahy-7" target="y2j8pdcFpELkHroc6ahy-127">
          <mxGeometry relative="1" as="geometry" />
        </mxCell>
        <mxCell id="y2j8pdcFpELkHroc6ahy-145" value="Run" style="edgeLabel;html=1;align=center;verticalAlign=middle;resizable=0;points=[];" vertex="1" connectable="0" parent="y2j8pdcFpELkHroc6ahy-142">
          <mxGeometry x="-0.272" relative="1" as="geometry">
            <mxPoint y="10" as="offset" />
          </mxGeometry>
        </mxCell>
        <mxCell id="y2j8pdcFpELkHroc6ahy-7" value="&lt;div&gt;&amp;lt;&amp;lt; Application &amp;gt;&amp;gt;&lt;/div&gt;S1ESP Agent" style="rounded=1;whiteSpace=wrap;html=1;" vertex="1" parent="y2j8pdcFpELkHroc6ahy-9">
          <mxGeometry x="190" y="40" width="120" height="60" as="geometry" />
        </mxCell>
        <mxCell id="y2j8pdcFpELkHroc6ahy-12" value="" style="line;strokeWidth=1;dashed=1;labelPosition=center;verticalLabelPosition=bottom;align=left;verticalAlign=top;spacingLeft=20;spacingTop=15;html=1;whiteSpace=wrap;" vertex="1" parent="y2j8pdcFpELkHroc6ahy-9">
          <mxGeometry y="140" width="330" height="10" as="geometry" />
        </mxCell>
        <mxCell id="y2j8pdcFpELkHroc6ahy-17" style="edgeStyle=orthogonalEdgeStyle;rounded=0;orthogonalLoop=1;jettySize=auto;html=1;entryX=0.5;entryY=1;entryDx=0;entryDy=0;" edge="1" parent="y2j8pdcFpELkHroc6ahy-9" source="y2j8pdcFpELkHroc6ahy-8" target="y2j8pdcFpELkHroc6ahy-7">
          <mxGeometry relative="1" as="geometry">
            <Array as="points">
              <mxPoint x="198" y="130" />
              <mxPoint x="250" y="130" />
            </Array>
          </mxGeometry>
        </mxCell>
        <mxCell id="y2j8pdcFpELkHroc6ahy-18" value="Get NIC Info" style="edgeLabel;html=1;align=center;verticalAlign=middle;resizable=0;points=[];" vertex="1" connectable="0" parent="y2j8pdcFpELkHroc6ahy-17">
          <mxGeometry x="-0.0421" y="-2" relative="1" as="geometry">
            <mxPoint x="-10" y="27" as="offset" />
          </mxGeometry>
        </mxCell>
        <mxCell id="y2j8pdcFpELkHroc6ahy-8" value="Network interface controller" style="sketch=0;pointerEvents=1;shadow=0;dashed=0;html=1;strokeColor=none;fillColor=#505050;labelPosition=center;verticalLabelPosition=bottom;verticalAlign=top;outlineConnect=0;align=center;shape=mxgraph.office.devices.nic;" vertex="1" parent="y2j8pdcFpELkHroc6ahy-9">
          <mxGeometry x="170" y="180" width="57" height="38" as="geometry" />
        </mxCell>
        <mxCell id="y2j8pdcFpELkHroc6ahy-13" value="[Kernel mode]" style="text;html=1;" vertex="1" parent="y2j8pdcFpELkHroc6ahy-9">
          <mxGeometry x="10" y="145" width="100" height="20" as="geometry" />
        </mxCell>
        <mxCell id="y2j8pdcFpELkHroc6ahy-15" value="[Devices]" style="text;html=1;" vertex="1" parent="y2j8pdcFpELkHroc6ahy-9">
          <mxGeometry x="10" y="174" width="100" height="20" as="geometry" />
        </mxCell>
        <mxCell id="y2j8pdcFpELkHroc6ahy-127" value="Browser" style="sketch=0;pointerEvents=1;shadow=0;dashed=0;html=1;strokeColor=none;fillColor=#6E6E6E;aspect=fixed;labelPosition=center;verticalLabelPosition=bottom;verticalAlign=top;align=center;outlineConnect=0;shape=mxgraph.vvd.web_browser;strokeWidth=1;" vertex="1" parent="y2j8pdcFpELkHroc6ahy-9">
          <mxGeometry x="30" y="56.99999999999994" width="92.95" height="66" as="geometry" />
        </mxCell>
        <mxCell id="y2j8pdcFpELkHroc6ahy-128" value="&lt;font style=&quot;font-size: 13px;&quot;&gt;&lt;b&gt;Agent download&lt;br&gt;Page&lt;/b&gt;&lt;/font&gt;" style="text;html=1;align=center;verticalAlign=middle;whiteSpace=wrap;rounded=0;fillColor=default;" vertex="1" parent="y2j8pdcFpELkHroc6ahy-9">
          <mxGeometry x="40" y="79.46999999999994" width="70" height="39.47" as="geometry" />
        </mxCell>
        <mxCell id="y2j8pdcFpELkHroc6ahy-20" value="&amp;lt;&amp;lt; RDBMS &amp;gt;&amp;gt;&lt;div&gt;S1ESP DB&lt;/div&gt;" style="shape=cylinder3;whiteSpace=wrap;html=1;boundedLbl=1;backgroundOutline=1;size=10;" vertex="1" parent="1">
          <mxGeometry x="373" y="198.26" width="98" height="104.74" as="geometry" />
        </mxCell>
        <mxCell id="y2j8pdcFpELkHroc6ahy-22" value="UTM Devices(SECUI MF2)" style="verticalLabelPosition=bottom;sketch=0;html=1;fillColor=#6E6E6E;strokeColor=none;verticalAlign=top;pointerEvents=1;align=center;shape=mxgraph.cisco_safe.security_icons.utm;" vertex="1" parent="1">
          <mxGeometry x="817" y="119" width="190" height="21.5" as="geometry" />
        </mxCell>
        <mxCell id="y2j8pdcFpELkHroc6ahy-23" style="rounded=0;orthogonalLoop=1;jettySize=auto;html=1;exitX=1;exitY=0.5;exitDx=0;exitDy=0;entryX=0.01;entryY=0.499;entryDx=0;entryDy=0;entryPerimeter=0;" edge="1" parent="1" source="y2j8pdcFpELkHroc6ahy-30" target="y2j8pdcFpELkHroc6ahy-22">
          <mxGeometry relative="1" as="geometry">
            <mxPoint x="920.6799999999998" y="89.38" as="sourcePoint" />
            <mxPoint x="1530.68" y="-180.62" as="targetPoint" />
          </mxGeometry>
        </mxCell>
        <mxCell id="y2j8pdcFpELkHroc6ahy-27" value="S1ESP DB Server" style="shape=umlFrame;whiteSpace=wrap;html=1;pointerEvents=0;width=150;height=30;" vertex="1" parent="1">
          <mxGeometry x="332" y="153.63" width="180" height="160" as="geometry" />
        </mxCell>
        <mxCell id="y2j8pdcFpELkHroc6ahy-29" value="에스원 NS Server" style="shape=umlFrame;whiteSpace=wrap;html=1;pointerEvents=0;width=150;height=30;" vertex="1" parent="1">
          <mxGeometry x="573" y="40" width="200" height="159" as="geometry" />
        </mxCell>
        <mxCell id="y2j8pdcFpELkHroc6ahy-30" value="&amp;lt;&amp;lt; Web Service &amp;gt;&amp;gt;&lt;br&gt;에스원 NS" style="rounded=1;whiteSpace=wrap;html=1;" vertex="1" parent="1">
          <mxGeometry x="613" y="100" width="120" height="60" as="geometry" />
        </mxCell>
        <mxCell id="y2j8pdcFpELkHroc6ahy-31" value="/v1/utm/policy" style="rounded=0;whiteSpace=wrap;html=1;" vertex="1" parent="1">
          <mxGeometry x="1120" y="539.5" width="340" height="20" as="geometry" />
        </mxCell>
        <mxCell id="y2j8pdcFpELkHroc6ahy-36" value="/v1/utm/agent/update/{path}" style="rounded=0;whiteSpace=wrap;html=1;" vertex="1" parent="1">
          <mxGeometry x="1120" y="509.5" width="340" height="20" as="geometry" />
        </mxCell>
        <mxCell id="y2j8pdcFpELkHroc6ahy-49" value="NAC Devices" style="verticalLabelPosition=bottom;sketch=0;html=1;fillColor=#6E6E6E;strokeColor=none;verticalAlign=top;pointerEvents=1;align=center;shape=mxgraph.cisco_safe.security_icons.utm;" vertex="1" parent="1">
          <mxGeometry x="817" y="182" width="190" height="21.5" as="geometry" />
        </mxCell>
        <mxCell id="y2j8pdcFpELkHroc6ahy-50" value="IP List" style="rounded=0;orthogonalLoop=1;jettySize=auto;html=1;entryX=1.001;entryY=0.467;entryDx=0;entryDy=0;entryPerimeter=0;exitX=1.014;exitY=0.409;exitDx=0;exitDy=0;exitPerimeter=0;edgeStyle=orthogonalEdgeStyle;" edge="1" parent="1" source="y2j8pdcFpELkHroc6ahy-22" target="y2j8pdcFpELkHroc6ahy-49">
          <mxGeometry x="-0.0966" y="-3" relative="1" as="geometry">
            <mxPoint x="1178" y="297.5615" as="sourcePoint" />
            <mxPoint x="1180.47" y="364.05449999999996" as="targetPoint" />
            <Array as="points">
              <mxPoint x="1031" y="127.5" />
              <mxPoint x="1031" y="192.5" />
            </Array>
            <mxPoint as="offset" />
          </mxGeometry>
        </mxCell>
        <mxCell id="y2j8pdcFpELkHroc6ahy-51" style="rounded=0;orthogonalLoop=1;jettySize=auto;html=1;dashed=1;entryX=0.995;entryY=0.558;entryDx=0;entryDy=0;entryPerimeter=0;exitX=0.125;exitY=0.971;exitDx=0;exitDy=0;exitPerimeter=0;" edge="1" parent="1" source="y2j8pdcFpELkHroc6ahy-49" target="y2j8pdcFpELkHroc6ahy-9">
          <mxGeometry relative="1" as="geometry">
            <mxPoint x="932" y="587.5" as="targetPoint" />
            <Array as="points">
              <mxPoint x="841" y="510.5" />
            </Array>
          </mxGeometry>
        </mxCell>
        <mxCell id="y2j8pdcFpELkHroc6ahy-53" value="Block Network" style="edgeLabel;html=1;align=center;verticalAlign=middle;resizable=0;points=[];" vertex="1" connectable="0" parent="y2j8pdcFpELkHroc6ahy-51">
          <mxGeometry x="0.0914" y="-2" relative="1" as="geometry">
            <mxPoint x="2" y="-18" as="offset" />
          </mxGeometry>
        </mxCell>
        <mxCell id="y2j8pdcFpELkHroc6ahy-62" value="/v1/utm/agent/setup" style="rounded=0;whiteSpace=wrap;html=1;" vertex="1" parent="1">
          <mxGeometry x="1120" y="569.5" width="340" height="20" as="geometry" />
        </mxCell>
        <mxCell id="y2j8pdcFpELkHroc6ahy-63" value="GET /v1/consumers/{consumer}/utm/{device}/intranet" style="rounded=0;whiteSpace=wrap;html=1;" vertex="1" parent="1">
          <mxGeometry x="1120" y="352.63" width="340" height="20" as="geometry" />
        </mxCell>
        <mxCell id="y2j8pdcFpELkHroc6ahy-65" value="GET /v1/consumers/{consumer}/utm" style="rounded=0;whiteSpace=wrap;html=1;" vertex="1" parent="1">
          <mxGeometry x="1120" y="224.5" width="340" height="20" as="geometry" />
        </mxCell>
        <mxCell id="y2j8pdcFpELkHroc6ahy-66" value="PATH&amp;nbsp;/v1/consumers/{consumer}/utm/{device}" style="rounded=0;whiteSpace=wrap;html=1;" vertex="1" parent="1">
          <mxGeometry x="1120" y="254.12" width="340" height="21.13" as="geometry" />
        </mxCell>
        <mxCell id="y2j8pdcFpELkHroc6ahy-67" value="DELETE&amp;nbsp;/v1/consumers/{consumer}/utm/{device}" style="rounded=0;whiteSpace=wrap;html=1;" vertex="1" parent="1">
          <mxGeometry x="1120" y="286" width="340" height="20" as="geometry" />
        </mxCell>
        <mxCell id="y2j8pdcFpELkHroc6ahy-76" value="POST /v1/consumers/{consumer}/utm/{device}/intranet" style="rounded=0;whiteSpace=wrap;html=1;" vertex="1" parent="1">
          <mxGeometry x="1120" y="381.75" width="340" height="20" as="geometry" />
        </mxCell>
        <mxCell id="y2j8pdcFpELkHroc6ahy-77" value="PATCH /v1/consumers/{consumer}/utm/{device}/intranet/{ip}" style="rounded=0;whiteSpace=wrap;html=1;" vertex="1" parent="1">
          <mxGeometry x="1120" y="411.75" width="340" height="20" as="geometry" />
        </mxCell>
        <mxCell id="y2j8pdcFpELkHroc6ahy-78" value="DELETE /v1/consumers/{consumer}/utm/{device}/intranet/{ip}" style="rounded=0;whiteSpace=wrap;html=1;" vertex="1" parent="1">
          <mxGeometry x="1120" y="443.63" width="340" height="20" as="geometry" />
        </mxCell>
        <mxCell id="y2j8pdcFpELkHroc6ahy-80" value="POST&amp;nbsp;/v1/agents/login" style="rounded=0;whiteSpace=wrap;html=1;" vertex="1" parent="1">
          <mxGeometry x="1120" y="149.5" width="340" height="20" as="geometry" />
        </mxCell>
        <mxCell id="y2j8pdcFpELkHroc6ahy-84" value="" style="line;strokeWidth=1;dashed=1;labelPosition=center;verticalLabelPosition=bottom;align=left;verticalAlign=top;spacingLeft=20;spacingTop=15;html=1;whiteSpace=wrap;" vertex="1" parent="1">
          <mxGeometry x="1100" y="179.5" width="380" height="10" as="geometry" />
        </mxCell>
        <mxCell id="y2j8pdcFpELkHroc6ahy-86" value="" style="line;strokeWidth=1;dashed=1;labelPosition=center;verticalLabelPosition=bottom;align=left;verticalAlign=top;spacingLeft=20;spacingTop=15;html=1;whiteSpace=wrap;" vertex="1" parent="1">
          <mxGeometry x="1100" y="313.63" width="380" height="10" as="geometry" />
        </mxCell>
        <mxCell id="y2j8pdcFpELkHroc6ahy-87" value="" style="line;strokeWidth=1;dashed=1;labelPosition=center;verticalLabelPosition=bottom;align=left;verticalAlign=top;spacingLeft=20;spacingTop=15;html=1;whiteSpace=wrap;" vertex="1" parent="1">
          <mxGeometry x="1100" y="471.5" width="380" height="10" as="geometry" />
        </mxCell>
        <mxCell id="y2j8pdcFpELkHroc6ahy-88" value="&lt;b style=&quot;font-size: 11px;&quot;&gt;&lt;font style=&quot;font-size: 11px;&quot;&gt;MF2Controller&lt;/font&gt;&lt;/b&gt;" style="text;html=1;align=left;verticalAlign=middle;whiteSpace=wrap;rounded=0;fontSize=11;" vertex="1" parent="1">
          <mxGeometry x="1120" y="479.5" width="120" height="30" as="geometry" />
        </mxCell>
        <mxCell id="y2j8pdcFpELkHroc6ahy-89" value="&lt;span style=&quot;font-size: 11px;&quot;&gt;&lt;b style=&quot;font-size: 11px;&quot;&gt;UTMIntranetController&lt;/b&gt;&lt;/span&gt;" style="text;html=1;align=left;verticalAlign=middle;whiteSpace=wrap;rounded=0;fontSize=11;" vertex="1" parent="1">
          <mxGeometry x="1120" y="322.63" width="190" height="30" as="geometry" />
        </mxCell>
        <mxCell id="y2j8pdcFpELkHroc6ahy-90" value="&lt;span style=&quot;font-size: 11px;&quot;&gt;&lt;b style=&quot;font-size: 11px;&quot;&gt;UTMDeviceController&lt;/b&gt;&lt;/span&gt;" style="text;html=1;align=left;verticalAlign=middle;whiteSpace=wrap;rounded=0;fontSize=11;" vertex="1" parent="1">
          <mxGeometry x="1120" y="194.5" width="190" height="30" as="geometry" />
        </mxCell>
        <mxCell id="y2j8pdcFpELkHroc6ahy-91" value="&lt;span style=&quot;font-size: 11px;&quot;&gt;&lt;b style=&quot;font-size: 11px;&quot;&gt;Agents/AccountController&lt;/b&gt;&lt;/span&gt;" style="text;html=1;align=left;verticalAlign=middle;whiteSpace=wrap;rounded=0;fontSize=11;" vertex="1" parent="1">
          <mxGeometry x="1120" y="119.5" width="190" height="30" as="geometry" />
        </mxCell>
        <mxCell id="y2j8pdcFpELkHroc6ahy-136" style="rounded=0;orthogonalLoop=1;jettySize=auto;html=1;entryX=0;entryY=0.5;entryDx=0;entryDy=0;" edge="1" parent="1" source="y2j8pdcFpELkHroc6ahy-92" target="y2j8pdcFpELkHroc6ahy-30">
          <mxGeometry relative="1" as="geometry" />
        </mxCell>
        <mxCell id="y2j8pdcFpELkHroc6ahy-137" value="Get policy" style="edgeLabel;html=1;align=center;verticalAlign=middle;resizable=0;points=[];" vertex="1" connectable="0" parent="y2j8pdcFpELkHroc6ahy-136">
          <mxGeometry x="0.1083" y="-5" relative="1" as="geometry">
            <mxPoint x="1" y="-5" as="offset" />
          </mxGeometry>
        </mxCell>
        <mxCell id="y2j8pdcFpELkHroc6ahy-92" value="&amp;lt;&amp;lt; Web Service&lt;span style=&quot;background-color: initial;&quot;&gt;&amp;nbsp;&amp;gt;&amp;gt;&lt;/span&gt;&lt;div&gt;S1ESP&lt;/div&gt;" style="rounded=1;whiteSpace=wrap;html=1;arcSize=6;" vertex="1" parent="1">
          <mxGeometry x="66" y="96.5" width="135" height="67" as="geometry" />
        </mxCell>
        <mxCell id="y2j8pdcFpELkHroc6ahy-93" value="S1ESP API Server" style="shape=umlFrame;whiteSpace=wrap;html=1;pointerEvents=0;width=150;height=30;" vertex="1" parent="1">
          <mxGeometry x="39" y="41.5" width="213" height="156" as="geometry" />
        </mxCell>
        <mxCell id="y2j8pdcFpELkHroc6ahy-101" style="rounded=0;orthogonalLoop=1;jettySize=auto;html=1;entryX=0.25;entryY=1;entryDx=0;entryDy=0;" edge="1" parent="1" source="y2j8pdcFpELkHroc6ahy-120" target="y2j8pdcFpELkHroc6ahy-92">
          <mxGeometry relative="1" as="geometry">
            <Array as="points">
              <mxPoint x="221" y="542.5" />
              <mxPoint x="219" y="301.5" />
              <mxPoint x="102" y="301.5" />
            </Array>
          </mxGeometry>
        </mxCell>
        <mxCell id="y2j8pdcFpELkHroc6ahy-102" value="Configure UTM&lt;br&gt;Configure IP List" style="edgeLabel;html=1;align=center;verticalAlign=middle;resizable=0;points=[];" vertex="1" connectable="0" parent="y2j8pdcFpELkHroc6ahy-101">
          <mxGeometry x="-0.1267" relative="1" as="geometry">
            <mxPoint x="-19" y="-1" as="offset" />
          </mxGeometry>
        </mxCell>
        <mxCell id="y2j8pdcFpELkHroc6ahy-103" style="rounded=0;orthogonalLoop=1;jettySize=auto;html=1;entryX=0.5;entryY=1;entryDx=0;entryDy=0;exitX=0.25;exitY=0;exitDx=0;exitDy=0;" edge="1" parent="1" source="y2j8pdcFpELkHroc6ahy-7" target="y2j8pdcFpELkHroc6ahy-92">
          <mxGeometry relative="1" as="geometry">
            <Array as="points">
              <mxPoint x="661" y="330.5" />
              <mxPoint x="281" y="330.5" />
              <mxPoint x="221" y="280.5" />
              <mxPoint x="134" y="280.5" />
            </Array>
          </mxGeometry>
        </mxCell>
        <mxCell id="y2j8pdcFpELkHroc6ahy-131" value="Login" style="edgeLabel;html=1;align=center;verticalAlign=middle;resizable=0;points=[];" vertex="1" connectable="0" parent="y2j8pdcFpELkHroc6ahy-103">
          <mxGeometry x="-0.0215" y="2" relative="1" as="geometry">
            <mxPoint x="-36" y="-4" as="offset" />
          </mxGeometry>
        </mxCell>
        <mxCell id="y2j8pdcFpELkHroc6ahy-107" style="rounded=0;orthogonalLoop=1;jettySize=auto;html=1;exitX=0.846;exitY=1.005;exitDx=0;exitDy=0;exitPerimeter=0;entryX=0.013;entryY=0.408;entryDx=0;entryDy=0;entryPerimeter=0;" edge="1" parent="1" source="y2j8pdcFpELkHroc6ahy-92" target="y2j8pdcFpELkHroc6ahy-20">
          <mxGeometry relative="1" as="geometry">
            <mxPoint x="197" y="164.5" as="sourcePoint" />
            <mxPoint x="345" y="241" as="targetPoint" />
            <Array as="points">
              <mxPoint x="181" y="240.5" />
              <mxPoint x="291" y="240.5" />
            </Array>
          </mxGeometry>
        </mxCell>
        <mxCell id="y2j8pdcFpELkHroc6ahy-110" value="Consumer Manager PC" style="shape=umlFrame;whiteSpace=wrap;html=1;pointerEvents=0;recursiveResize=0;container=1;collapsible=0;width=170;" vertex="1" parent="1">
          <mxGeometry x="39" y="450.5" width="222" height="169" as="geometry" />
        </mxCell>
        <mxCell id="y2j8pdcFpELkHroc6ahy-120" value="Browser" style="sketch=0;pointerEvents=1;shadow=0;dashed=0;html=1;strokeColor=none;fillColor=#6E6E6E;aspect=fixed;labelPosition=center;verticalLabelPosition=bottom;verticalAlign=top;align=center;outlineConnect=0;shape=mxgraph.vvd.web_browser;strokeWidth=1;" vertex="1" parent="y2j8pdcFpELkHroc6ahy-110">
          <mxGeometry x="64.52" y="58.99999999999994" width="92.95" height="66" as="geometry" />
        </mxCell>
        <mxCell id="y2j8pdcFpELkHroc6ahy-124" value="&lt;font style=&quot;font-size: 13px;&quot;&gt;&lt;b&gt;Consumer&lt;br&gt;Page&lt;/b&gt;&lt;/font&gt;" style="text;html=1;align=center;verticalAlign=middle;whiteSpace=wrap;rounded=0;fillColor=default;" vertex="1" parent="y2j8pdcFpELkHroc6ahy-110">
          <mxGeometry x="74.51999999999998" y="77.41" width="70" height="39.47" as="geometry" />
        </mxCell>
        <mxCell id="y2j8pdcFpELkHroc6ahy-138" style="rounded=0;orthogonalLoop=1;jettySize=auto;html=1;exitX=0.694;exitY=1.001;exitDx=0;exitDy=0;exitPerimeter=0;edgeStyle=orthogonalEdgeStyle;entryX=0;entryY=0;entryDx=0;entryDy=55;entryPerimeter=0;" edge="1" parent="1" source="y2j8pdcFpELkHroc6ahy-92" target="y2j8pdcFpELkHroc6ahy-20">
          <mxGeometry relative="1" as="geometry">
            <mxPoint x="161" y="210.5" as="sourcePoint" />
            <mxPoint x="351" y="260.5" as="targetPoint" />
          </mxGeometry>
        </mxCell>
        <mxCell id="y2j8pdcFpELkHroc6ahy-139" value="Insert agent Info" style="edgeLabel;html=1;align=center;verticalAlign=middle;resizable=0;points=[];" vertex="1" connectable="0" parent="y2j8pdcFpELkHroc6ahy-138">
          <mxGeometry x="-0.4593" y="-6" relative="1" as="geometry">
            <mxPoint x="101" y="-11" as="offset" />
          </mxGeometry>
        </mxCell>
        <mxCell id="y2j8pdcFpELkHroc6ahy-141" value="Insert UTM Info" style="edgeLabel;html=1;align=center;verticalAlign=middle;resizable=0;points=[];" vertex="1" connectable="0" parent="y2j8pdcFpELkHroc6ahy-138">
          <mxGeometry x="0.0773" y="-2" relative="1" as="geometry">
            <mxPoint x="12" as="offset" />
          </mxGeometry>
        </mxCell>
        <mxCell id="y2j8pdcFpELkHroc6ahy-148" value="" style="endArrow=none;dashed=1;html=1;dashPattern=1 3;strokeWidth=2;rounded=0;" edge="1" parent="1">
          <mxGeometry width="50" height="50" relative="1" as="geometry">
            <mxPoint x="1060" y="631.5" as="sourcePoint" />
            <mxPoint x="1060" y="31.5" as="targetPoint" />
          </mxGeometry>
        </mxCell>
      </root>
    </mxGraphModel>
  </diagram>
</mxfile>
